<?xml version="1.0" encoding="UTF-8" standalone="no"?>
<!-- Created with Inkscape (http://www.inkscape.org/) -->

<svg
   xmlns:dc="http://purl.org/dc/elements/1.1/"
   xmlns:cc="http://creativecommons.org/ns#"
   xmlns:rdf="http://www.w3.org/1999/02/22-rdf-syntax-ns#"
   xmlns:svg="http://www.w3.org/2000/svg"
   xmlns="http://www.w3.org/2000/svg"
   xmlns:sodipodi="http://sodipodi.sourceforge.net/DTD/sodipodi-0.dtd"
   xmlns:inkscape="http://www.inkscape.org/namespaces/inkscape"
   width="1150.4567"
   height="500"
   id="svg3024"
   version="1.1"
   inkscape:version="0.92.3 (2405546, 2018-03-11)"
   sodipodi:docname="path_penguin.svg"
   inkscape:export-filename="/home/kristian/projects/learning_paths/path_penguin.png"
   inkscape:export-xdpi="100.032"
   inkscape:export-ydpi="100.032">
  <defs
     id="defs3">
    <inkscape:path-effect
       effect="skeletal"
       id="path-effect3085"
       is_visible="true"
       pattern="m 331.55411,363.8826 h 1"
       copytype="single_stretched"
       prop_scale="1"
       scale_y_rel="false"
       spacing="0"
       normal_offset="0"
       tang_offset="0"
       prop_units="false"
       vertical_pattern="false"
       fuse_tolerance="0" />
    <inkscape:path-effect
       effect="skeletal"
       id="path-effect3074"
       is_visible="true"
       pattern="M 0,0 H 1"
       copytype="single_stretched"
       prop_scale="1"
       scale_y_rel="false"
       spacing="0"
       normal_offset="0"
       tang_offset="0"
       prop_units="false"
       vertical_pattern="false"
       fuse_tolerance="0" />
    <inkscape:path-effect
       effect="skeletal"
       id="path-effect3882"
       is_visible="true"
       pattern="M 0,0 H 1"
       copytype="single_stretched"
       prop_scale="1"
       scale_y_rel="false"
       spacing="0"
       normal_offset="0"
       tang_offset="0"
       prop_units="false"
       vertical_pattern="false"
       fuse_tolerance="0" />
    <clipPath
       clipPathUnits="userSpaceOnUse"
       id="clipPath3068">
      <rect
         style="opacity:0.25;fill:#000000;fill-opacity:1;stroke:#000000;stroke-width:8;stroke-linecap:round;stroke-miterlimit:4;stroke-dasharray:none;stroke-dashoffset:0;stroke-opacity:1"
         id="rect3070"
         width="745.60602"
         height="157.33781"
         x="-2.7488632"
         y="-2.1184909"
         clip-path="none" />
    </clipPath>
    <clipPath
       clipPathUnits="userSpaceOnUse"
       id="clipPath3072">
      <rect
         clip-path="none"
         y="895.31543"
         x="-1.3202919"
         height="157.33781"
         width="745.60602"
         id="rect3074"
         style="opacity:0.25;fill:#000000;fill-opacity:1;stroke:#000000;stroke-width:8;stroke-linecap:round;stroke-miterlimit:4;stroke-dasharray:none;stroke-dashoffset:0;stroke-opacity:1" />
    </clipPath>
    <clipPath
       clipPathUnits="userSpaceOnUse"
       id="clipPath3078">
      <rect
         style="opacity:0.25;fill:#000000;fill-opacity:1;stroke:#000000;stroke-width:8;stroke-linecap:round;stroke-miterlimit:4;stroke-dasharray:none;stroke-dashoffset:0;stroke-opacity:1"
         id="rect3080"
         width="695.85852"
         height="1000.1765"
         x="-1.3202919"
         y="-0.68991953" />
    </clipPath>
    <clipPath
       clipPathUnits="userSpaceOnUse"
       id="clipPath3057">
      <rect
         style="opacity:0.9;fill:#ffffff;fill-opacity:1;stroke:none"
         id="rect3059"
         width="340.00003"
         height="78.571434"
         x="38.571438"
         y="16.505043" />
    </clipPath>
  </defs>
  <sodipodi:namedview
     inkscape:document-units="mm"
     id="base"
     pagecolor="#ffffff"
     bordercolor="#666666"
     borderopacity="1.0"
     inkscape:pageopacity="1"
     inkscape:pageshadow="2"
     inkscape:zoom="0.68227461"
     inkscape:cx="629.81581"
     inkscape:cy="367.5573"
     inkscape:current-layer="g4572"
     showgrid="false"
     inkscape:object-paths="false"
     inkscape:window-width="1853"
     inkscape:window-height="1025"
     inkscape:window-x="67"
     inkscape:window-y="27"
     inkscape:window-maximized="1"
     inkscape:object-nodes="true"
     units="px"
     showguides="false" />
  <metadata
     id="metadata4">
    <rdf:RDF>
      <cc:Work
         rdf:about="">
        <dc:format>image/svg+xml</dc:format>
        <dc:type
           rdf:resource="http://purl.org/dc/dcmitype/StillImage" />
        <dc:title></dc:title>
      </cc:Work>
    </rdf:RDF>
  </metadata>
  <g
     inkscape:label="Layer 1"
     inkscape:groupmode="layer"
     id="layer1"
     transform="translate(0,-622.51971)">
    <g
       id="g3941"
       transform="matrix(0.75352578,0,0,0.75352578,653.1073,404.57257)"
       clip-path="none"
       inkscape:export-filename="/home/krother/Desktop/thank_you.png"
       inkscape:export-xdpi="150.00104"
       inkscape:export-ydpi="150.00104">
      <g
         id="g103"
         transform="translate(35.01186,262.58895)">
        <path
           style="fill:#000000;fill-opacity:1;stroke:#000000;stroke-width:3;stroke-opacity:1"
           d="m -568.71875,107.875 c -42.95767,0 -75.0559,30.62855 -77.78125,68.1875 -2.96731,40.89352 9.64183,74.05182 -14.14214,122.75158 -27.57472,32.78818 -67.6821,89.82098 -75.25824,152.99842 -8.65903,72.20759 32.40085,134.45734 95.26068,153.22685 17.42882,5.20412 48.11705,-2.68577 68.40223,-2.68577 26.21964,0 51.68153,7.07798 74.7467,-1.50444 59.13916,-22.00533 90.45539,-81.50418 99.99664,-149.03664 7.37651,-52.21057 -42.68153,-122.66396 -80.30123,-166.77221 -16.37089,-38.35558 -10.07937,-76.08155 -13.14214,-108.97779 0,-37.6577 -34.82358,-68.1875 -77.78125,-68.1875 z"
           id="path3094"
           inkscape:connector-curvature="0"
           sodipodi:nodetypes="sscsssssccs" />
        <ellipse
           ry="27.526657"
           rx="18.435284"
           cy="213.17795"
           cx="-619.47607"
           style="fill:#ffffff;stroke:#ffffff;stroke-width:3;stroke-linecap:round;stroke-miterlimit:4;stroke-dasharray:none;stroke-dashoffset:0;stroke-opacity:1"
           id="path3111" />
        <ellipse
           ry="33.587574"
           rx="23.738585"
           cy="214.18811"
           cx="-554.06866"
           style="fill:#ffffff;stroke:#ffffff;stroke-width:3;stroke-linecap:round;stroke-miterlimit:4;stroke-dasharray:none;stroke-dashoffset:0;stroke-opacity:1"
           id="path3113" />
        <ellipse
           ry="14.394673"
           rx="7.5761442"
           cy="222.26933"
           cx="-619.22351"
           style="fill:#000000;fill-opacity:1;stroke:#000000;stroke-width:3;stroke-linecap:round;stroke-miterlimit:4;stroke-dasharray:none;stroke-dashoffset:0;stroke-opacity:1"
           id="path3115" />
        <ellipse
           ry="16.414978"
           rx="11.364216"
           cy="220.24902"
           cx="-557.35168"
           style="fill:#000000;fill-opacity:1;stroke:#000000;stroke-width:3;stroke-linecap:round;stroke-miterlimit:4;stroke-dasharray:none;stroke-dashoffset:0;stroke-opacity:1"
           id="path3117" />
        <path
           style="fill:#cccccc;fill-opacity:1;stroke:#cccccc;stroke-width:3;stroke-linecap:round;stroke-miterlimit:4;stroke-dasharray:none;stroke-dashoffset:0;stroke-opacity:1"
           d="m -718.21795,463.84961 c -17.06608,0 -16.45406,9.32379 -33.43164,27.8758 -10.9234,11.93639 -38.06419,11.04242 -38.80901,33.83709 0,11.07486 4.31385,14.28448 3.75555,22.23906 -1.3168,18.76162 -4.05786,16.30027 -4.68797,35.35897 0,13.08112 11.79089,21.63595 29.47462,21.63595 21.67987,-2.53056 28.34364,-1.94404 48.56012,9.50936 35.72141,20.29019 66.98636,20.05274 85.66291,-6.74841 4.42465,-6.34944 3.20484,-23.26492 -0.41963,-29.86204 -13.56335,-24.68745 -38.13817,-53.58974 -48.08703,-74.35322 -10.9784,-22.91216 -24.95184,-39.49256 -42.01792,-39.49256 z"
           id="path3119"
           inkscape:connector-curvature="0"
           sodipodi:nodetypes="sscscccssss" />
        <path
           style="fill:#e6e6e6;fill-opacity:1;stroke:#e6e6e6;stroke-width:1px;stroke-linecap:butt;stroke-linejoin:miter;stroke-opacity:1"
           d="m -673.77175,351.82139 c -33.28823,67.83189 -20.56416,81.99422 -12.12183,104.55079 1.65176,-35.00126 13.8369,-68.72813 31.34429,-100.06335 15.88382,-28.42932 22.97844,-57.74802 24.71918,-78.73365 l 100.51018,-10.6066 28.28427,76.77159 c 14.21078,28.08159 28.05607,56.34593 34.34518,88.38835 l 13.13199,1.51523 c 1.78902,-23.55152 17.86649,-27.47988 -28.28427,-92.42896 20.06513,20.39054 46.04634,46.73083 37.88072,97.47972 36.62514,11.47079 28.89171,24.64767 32.82995,37.37565 l -100.0051,81.82235 c -36.35806,28.64327 -79.84976,35.88563 -136.37059,4.04061 l -3.03046,-15.15229 c 17.24432,-0.3653 28.60553,-5.59057 15.15229,-31.31473 -10.15579,-21.79459 -37.57964,-29.36446 -62.62946,-55.55839 -21.50795,-59.82599 13.88906,-82.28775 24.24366,-108.08632 z"
           id="path3135"
           inkscape:connector-curvature="0"
           sodipodi:nodetypes="ccscccccccccccccc" />
        <path
           sodipodi:nodetypes="sccscccssss"
           inkscape:connector-curvature="0"
           id="path3131"
           d="m -482.62127,464.14577 c 15.81806,-6.40626 23.04404,-1.44875 43.85557,12.66845 15.82929,3.35136 41.53496,-6.18965 50.78197,14.65849 4.15728,10.26496 1.68411,14.92137 5.18757,22.08467 8.26324,16.8953 10.89005,18.1307 18.62833,35.55913 4.91039,12.12451 -5.32215,19.91903 -21.71269,26.55714 -18.51899,8.82314 -23.14965,11.90514 -39.10358,26.06921 -25.49262,32.21548 -51.65084,41.66268 -79.0222,23.83226 -6.48453,-4.22419 -12.67663,-15.1148 -13.14475,-22.62743 -1.73,-27.76418 15.31738,-53.98102 14.23353,-81.54172 -0.99837,-25.38692 4.4782,-50.85394 20.29625,-57.2602 z"
           style="fill:#cccccc;fill-opacity:1;stroke:#cccccc;stroke-width:3;stroke-linecap:round;stroke-miterlimit:4;stroke-dasharray:none;stroke-dashoffset:0;stroke-opacity:1" />
        <path
           style="fill:#000000;fill-opacity:1;stroke:#666666;stroke-width:1px;stroke-linecap:butt;stroke-linejoin:miter;stroke-opacity:1"
           d="m -472.75139,445.76558 c -11.57098,5.85988 -6.1004,36.23248 4.54569,48.48732 4.76696,5.48731 14.29239,7.27268 21.2132,5.05076 14.65759,-4.70582 36.17228,-23.63085 30.80966,-31.8198 -5.36262,-8.18895 -34.48052,-32.9043 -56.56855,-21.71828 z"
           id="path3133"
           inkscape:connector-curvature="0"
           sodipodi:nodetypes="sssss" />
        <ellipse
           ry="59.85154"
           rx="78.791901"
           cy="409.14755"
           cx="-582.85803"
           style="fill:#ffffff;stroke:#ffffff;stroke-width:3;stroke-linecap:round;stroke-miterlimit:4;stroke-dasharray:none;stroke-dashoffset:0;stroke-opacity:1"
           id="path3137"
           transform="translate(0.50507627,-1.0101525)" />
        <path
           style="fill:#b3b3b3;fill-opacity:1;stroke:#b3b3b3;stroke-width:4;stroke-linecap:butt;stroke-linejoin:miter;stroke-opacity:1"
           d="m -640.94179,255.35182 c 0.74078,-7.40518 13.1604,-14.32956 19.1929,-18.68782 6.09393,-4.40265 11.54878,-10.27035 18.68782,-12.6269 7.36114,-2.42987 16.41063,-4.6897 23.23351,-1.01016 12.58471,6.78686 34.38069,12.48533 42.42641,19.1929 6.60898,5.50979 14.17379,9.32149 12.12183,17.67767 -2.74079,11.16129 -18.21752,17.18345 -28.28427,22.72843 -10.81652,5.95796 -20.98641,16.23773 -33.33504,16.16244 -10.54073,-0.0643 -19.32624,-8.58652 -28.28427,-14.14213 -10.13234,-6.2839 -27.06309,-16.25707 -25.75889,-29.29443 z"
           id="path3090"
           inkscape:connector-curvature="0"
           sodipodi:nodetypes="ssssssssss" />
        <path
           style="fill:none;stroke:#000000;stroke-width:4;stroke-linecap:butt;stroke-linejoin:miter;stroke-opacity:1"
           d="m -631.34534,256.86705 c 41.6098,40.24173 63.51548,11.519 89.90358,-1.51523"
           id="path3109"
           inkscape:connector-curvature="0"
           sodipodi:nodetypes="cc" />
      </g>
      <g
         id="g4572"
         transform="matrix(1.3270946,0,0,1.3270946,-834.51295,-421.5891)"
         inkscape:export-filename="/home/krother/Desktop/courses/time_management/images/panda_bsc.png"
         inkscape:export-xdpi="150.00104"
         inkscape:export-ydpi="150.00104">
        <path
           sodipodi:nodetypes="sssssssccss"
           inkscape:connector-curvature="0"
           id="rect4567"
           d="m 479.99549,782.51999 h 543.23261 c 26.2021,0 47.2961,-21.09408 47.2961,-47.29615 V 635.2148 c 0,-26.20207 -21.094,-47.29616 -47.2961,-47.29616 H 479.99549 c -26.20206,0 -47.29615,21.09409 -47.29615,47.29616 l -81.42857,48.57594 81.42857,19.99999 v 31.43311 c 0,26.20207 21.09409,47.29615 47.29615,47.29615 z"
           style="fill:#ffffff;fill-opacity:1;stroke:#000000;stroke-width:3;stroke-linecap:round;stroke-miterlimit:4;stroke-dashoffset:0;stroke-opacity:1" />
        <flowRoot
           xml:space="preserve"
           id="flowRoot4555"
           style="font-style:normal;font-weight:normal;line-height:0.01%;font-family:sans-serif;letter-spacing:0px;word-spacing:0px;fill:#000000;fill-opacity:1;stroke:none"
           transform="translate(32.857143,388.57144)"><flowRegion
             id="flowRegion4557"
             style="font-family:sans-serif"><rect
               id="rect4559"
               width="600.37054"
               height="130.80252"
               x="467.14285"
               y="243.79076"
               style="font-family:sans-serif" /></flowRegion><flowPara
             id="flowPara4561"
             style="font-style:italic;font-variant:normal;font-weight:bold;font-stretch:normal;font-size:42.66666794px;line-height:1.25;font-family:Mallige;-inkscape-font-specification:'Mallige Italic'">The Command Line:</flowPara><flowPara
             style="font-style:italic;font-variant:normal;font-weight:bold;font-stretch:normal;font-size:42.66666794px;line-height:1.25;font-family:Mallige;-inkscape-font-specification:'Mallige Italic'"
             id="flowPara147" /><flowPara
             id="flowPara4565"
             style="font-style:italic;font-variant:normal;font-weight:bold;font-stretch:normal;font-size:37.33333484px;line-height:1.25;font-family:Mallige;-inkscape-font-specification:'Mallige Italic'">the path of the penguin</flowPara></flowRoot>      </g>
    </g>
    <text
       xml:space="preserve"
       style="font-style:normal;font-weight:normal;line-height:0%;font-family:sans-serif;letter-spacing:0px;word-spacing:0px;fill:#000000;fill-opacity:1;stroke:none"
       x="317.1879"
       y="264.44321"
       id="text3147"><tspan
         sodipodi:role="line"
         id="tspan3149"
         x="317.1879"
         y="264.44321"
         style="font-size:40px;line-height:1.25;font-family:sans-serif"> </tspan><tspan
         sodipodi:role="line"
         id="tspan3151"
         x="317.1879"
         y="314.44321"
         style="font-size:40px;line-height:1.25;font-family:sans-serif"> </tspan></text>
  </g>
</svg>
